<?xml version="1.0" standalone="no"?>
<!DOCTYPE svg PUBLIC "-//W3C//DTD SVG 20010904//EN"
 "http://www.w3.org/TR/2001/REC-SVG-20010904/DTD/svg10.dtd">
<svg version="1.0" xmlns="http://www.w3.org/2000/svg"
 width="492.000000pt" height="492.000000pt" viewBox="0 0 492.000000 492.000000"
 preserveAspectRatio="xMidYMid meet">
<metadata>
Created by potrace 1.14, written by Peter Selinger 2001-2017
</metadata>
<g transform="translate(0.000000,492.000000) scale(0.100000,-0.100000)"
fill="#000000" stroke="none">
<path d="M2288 4900 c-308 -26 -580 -102 -863 -240 -333 -163 -628 -408 -849
-704 -110 -148 -156 -224 -237 -390 -363 -743 -305 -1649 150 -2331 104 -158
169 -237 299 -368 700 -708 1748 -904 2661 -497 254 113 481 270 692 480 208
207 322 363 450 615 175 347 253 676 253 1070 0 202 -9 287 -45 470 -195 975
-991 1730 -1979 1875 -155 23 -390 31 -532 20z m424 -75 c463 -49 887 -228
1246 -528 87 -72 250 -240 324 -333 564 -710 655 -1700 232 -2504 -218 -413
-578 -770 -977 -971 l-98 -50 -27 19 c-15 11 -151 90 -302 177 -151 87 -277
160 -280 162 -3 3 11 2 30 -2 58 -13 201 -7 273 10 78 18 190 61 229 87 14 10
30 18 35 18 15 1 154 107 211 162 30 29 72 76 92 103 39 52 115 185 107 185
-3 0 -29 -35 -58 -77 -118 -176 -311 -311 -535 -375 -115 -33 -307 -33 -379 0
-63 29 -93 57 -116 107 -85 184 110 487 430 668 l33 18 -7 -58 c-4 -32 -9 -67
-12 -78 -2 -11 -6 -47 -9 -80 l-5 -60 20 35 c11 19 21 42 21 50 0 8 22 65 49
125 53 124 54 125 173 149 96 20 172 20 263 1 38 -8 73 -15 77 -15 16 0 7 20
-22 53 -55 64 -182 107 -310 107 l-57 0 19 56 c28 83 35 211 14 252 -22 43
-57 43 -90 -1 -49 -64 -69 -127 -91 -287 -7 -45 -17 -60 -45 -60 -19 0 -101
-32 -160 -62 -155 -80 -289 -205 -373 -348 -76 -130 -101 -216 -95 -328 5 -94
23 -141 82 -217 l31 -40 -35 22 c-19 11 -456 262 -970 558 -514 295 -939 541
-943 545 -5 4 17 2 50 -6 76 -18 145 -18 235 1 136 29 209 59 320 132 l68 44
101 -73 c55 -40 133 -97 172 -126 40 -29 90 -64 112 -79 22 -14 45 -32 52 -39
7 -7 37 -26 66 -43 42 -24 68 -31 113 -32 139 -4 467 69 693 155 127 49 297
134 331 166 54 51 30 78 -58 65 -55 -7 -253 -59 -315 -81 -23 -9 -98 -35 -167
-59 -69 -24 -183 -64 -255 -89 -134 -48 -234 -76 -264 -76 -22 0 -117 45 -156
74 -16 13 -79 52 -140 88 -60 36 -145 88 -188 116 l-78 51 28 18 c48 31 123
105 178 178 48 64 58 72 111 88 33 10 82 27 109 37 104 39 280 90 329 96 49 6
57 3 200 -70 142 -73 195 -93 124 -47 -18 11 -78 50 -133 86 -55 35 -111 69
-123 75 -37 16 -159 18 -268 4 -173 -22 -186 -24 -332 -60 -244 -60 -422 -144
-422 -199 0 -22 45 -36 99 -30 70 9 187 35 249 56 30 10 58 17 61 13 8 -8
-136 -146 -198 -188 l-54 -36 -35 20 c-40 24 -55 21 -17 -4 14 -9 25 -20 25
-25 0 -15 -171 -84 -263 -106 -227 -55 -429 8 -467 145 -33 118 38 293 175
434 80 81 97 96 179 150 220 145 436 200 623 156 34 -7 66 -11 70 -7 8 9 -25
54 -58 79 -46 35 -168 70 -253 73 -101 4 -245 -20 -331 -54 -349 -142 -597
-461 -569 -736 6 -62 42 -170 62 -185 4 -3 18 -18 32 -34 31 -35 38 -39 -175
84 -85 50 -159 90 -164 90 -14 0 -21 68 -21 218 -1 1070 723 1993 1761 2246
253 61 520 79 781 51z m-932 -3537 c850 -490 1546 -891 1548 -893 14 -14 -309
-107 -468 -135 -158 -28 -450 -38 -611 -21 -696 72 -1304 436 -1692 1013 -182
272 -299 569 -361 916 -5 31 -5 32 16 21 13 -7 718 -412 1568 -901z"/>
<path d="M2637 3594 c-135 -26 -234 -74 -321 -158 -54 -51 -116 -138 -116
-162 0 -7 37 -34 82 -59 94 -53 77 -58 148 43 43 60 137 132 210 160 100 39
241 52 351 32 30 -5 71 -11 91 -14 64 -10 130 -26 203 -50 137 -46 177 -57
183 -51 13 13 -99 103 -178 142 -208 103 -474 151 -653 117z"/>
<path d="M3624 3484 c4 -16 17 -53 29 -83 18 -45 28 -56 56 -66 61 -20 87 -76
59 -128 -36 -69 -179 -112 -261 -80 l-37 15 6 64 c4 35 3 64 -1 64 -28 0 -74
-27 -88 -52 -61 -107 61 -225 244 -236 69 -4 89 -1 156 23 128 47 195 136 178
239 -22 142 -145 254 -288 264 l-60 5 7 -29z"/>
<path d="M3039 3191 c-45 -9 -105 -46 -126 -78 -24 -36 -20 -100 9 -158 35
-68 217 -251 314 -315 42 -28 159 -113 169 -123 6 -6 -7 0 -27 12 -45 27 -131
39 -153 21 -24 -20 -18 -44 23 -84 45 -46 81 -65 197 -105 50 -16 128 -44 175
-60 96 -34 128 -39 90 -13 -28 19 -137 104 -160 125 -8 7 -26 20 -40 30 -14 9
-36 25 -49 35 l-24 20 41 62 c23 34 42 65 42 69 0 4 -26 23 -57 44 -32 20 -67
43 -78 52 -11 8 -60 46 -110 83 -115 85 -225 194 -225 220 0 26 39 56 98 77
59 20 115 50 119 62 9 26 -136 42 -228 24z"/>
<path d="M2139 3113 c14 -26 131 -140 292 -283 141 -125 319 -316 319 -341 0
-12 -115 -61 -220 -94 -58 -18 -148 -46 -200 -63 -52 -16 -109 -33 -127 -36
l-31 -7 20 40 c10 21 22 64 25 94 5 47 2 58 -16 76 -26 26 -61 27 -93 2 -32
-26 -78 -113 -99 -186 l-16 -60 -41 -3 c-39 -3 -42 -6 -51 -40 -6 -20 -11 -55
-13 -77 -3 -37 -1 -41 30 -50 24 -7 31 -14 27 -27 -3 -10 -8 -28 -11 -40 -4
-15 5 -8 25 20 26 35 37 42 66 42 39 0 369 78 465 110 216 72 348 135 403 192
71 73 5 188 -229 393 -99 87 -381 287 -466 331 -57 29 -72 31 -59 7z"/>
<path d="M3642 2728 c-68 -85 4 -282 137 -377 38 -27 45 -23 86 53 l30 56 -42
37 c-23 21 -65 79 -93 128 -51 89 -73 115 -96 115 -6 0 -16 -6 -22 -12z"/>
<path d="M950 1366 c-279 -99 -325 -131 -247 -173 26 -15 54 -18 155 -16 l123
1 -6 -38 c-10 -59 1 -79 58 -106 140 -65 361 0 464 134 52 69 41 152 -21 152
-22 0 -46 -17 -46 -32 0 -4 11 -8 25 -8 85 0 4 -133 -114 -188 -102 -47 -309
-40 -319 12 -3 12 16 37 57 75 91 84 82 97 -43 61 -38 -10 -95 -22 -127 -26
-61 -7 -149 2 -149 15 0 13 90 49 190 76 108 30 140 47 140 75 0 28 -28 26
-140 -14z"/>
<path d="M1597 1073 c-15 -14 -6 -33 16 -33 12 0 28 -4 35 -9 19 -12 -3 -27
-141 -96 -127 -63 -150 -82 -128 -109 12 -14 17 -13 55 9 60 35 112 33 164 -5
40 -29 61 -68 47 -89 -14 -23 -140 -6 -226 31 -32 13 -52 30 -65 54 -19 36
-31 39 -48 12 -16 -26 17 -64 84 -98 111 -56 224 -74 279 -45 49 25 48 71 -4
133 l-27 32 54 0 c148 0 216 79 131 149 -63 52 -200 91 -226 64z m168 -75 c27
-12 44 -53 28 -69 -15 -15 -133 -29 -173 -21 l-34 8 52 32 c29 18 55 39 58 47
7 18 34 19 69 3z"/>
<path d="M1967 823 c-15 -14 -6 -33 16 -33 12 0 28 -4 35 -9 19 -12 -3 -27
-141 -96 -127 -63 -150 -82 -128 -109 12 -14 17 -13 55 9 60 35 112 33 164 -5
40 -29 61 -68 47 -89 -14 -23 -140 -6 -226 31 -32 13 -52 30 -65 54 -19 36
-31 39 -48 12 -16 -26 17 -64 84 -98 111 -56 224 -74 279 -45 49 25 48 71 -4
133 l-27 32 54 0 c148 0 216 79 131 149 -63 52 -200 91 -226 64z m168 -75 c27
-12 44 -53 28 -69 -15 -15 -133 -29 -173 -21 l-34 8 52 32 c29 18 55 39 58 47
7 18 34 19 69 3z"/>
</g>
</svg>
